<svg width="176" height="162" viewBox="0 0 176 162" fill="none" xmlns="http://www.w3.org/2000/svg">
<path fill-rule="evenodd" clip-rule="evenodd" d="M75.0332 70.0632H4.02917C9.16733 104.127 19.8054 138.029 39.8789 154.395C42.7582 156.743 46.2684 157.997 49.8703 157.997H100.196C103.798 157.997 107.308 156.743 110.188 154.395C130.261 138.029 140.899 104.127 146.037 70.0636H75.0332V70.0632Z" fill="#F9B12F"/>
<path opacity="0.15" fill-rule="evenodd" clip-rule="evenodd" d="M124.553 70.0635C119.412 104.128 108.777 138.029 88.7032 154.395C85.8215 156.743 82.3137 157.997 78.7094 157.997H100.196C103.8 157.997 107.307 156.743 110.189 154.395C130.263 138.029 140.899 104.128 146.039 70.0635H124.553H124.553Z" fill="black" fill-opacity="0.32"/>
<path fill-rule="evenodd" clip-rule="evenodd" d="M149.01 70.0635C147.987 70.0635 146.988 70.1647 145.999 70.3089C145.102 76.2186 144.033 82.1181 142.784 87.9265C144.092 87.1127 145.585 86.6113 147.202 86.6113C152.136 86.6113 156.138 89.25 156.138 96.291C156.138 104.955 145.414 110.059 140.48 110.059C138.777 110.059 137.998 109.045 137.692 107.513C135.374 114.934 132.656 121.962 129.511 128.408C130.285 128.677 131.128 128.867 132.146 128.867C144.519 128.867 171.415 116.062 171.415 94.3381C171.415 76.6803 161.383 70.0635 149.01 70.0635Z" fill="#F9B12F"/>
<path opacity="0.15" fill-rule="evenodd" clip-rule="evenodd" d="M149.01 70.0635C147.987 70.0635 146.988 70.1647 145.999 70.3089C145.102 76.2186 144.033 82.1181 142.784 87.9265C144.092 87.1127 145.585 86.6113 147.202 86.6113C152.136 86.6113 156.138 89.25 156.138 96.291C156.138 104.955 145.414 110.059 140.48 110.059C138.777 110.059 137.998 109.045 137.692 107.513C135.374 114.934 132.656 121.962 129.511 128.408C130.285 128.677 131.128 128.867 132.146 128.867C144.519 128.867 171.415 116.062 171.415 94.3381C171.415 76.6803 161.383 70.0635 149.01 70.0635Z" fill="black"/>
<path fill-rule="evenodd" clip-rule="evenodd" d="M8.74187 74.0662C13.278 101.359 22.7535 135.255 42.435 151.301C44.5974 153.062 47.1675 153.996 49.8694 153.996H100.196C102.9 153.996 105.473 153.062 107.633 151.301C127.314 135.252 136.789 101.359 141.326 74.0662H8.74187ZM100.196 162H49.8694C45.3463 162 40.8933 160.396 37.3268 157.491C14.5377 138.913 4.47415 100.016 0.0447662 70.6562C-0.0413795 70.0867 -0.00288748 69.5052 0.157585 68.952C0.318057 68.3987 0.596685 67.8869 0.974233 67.4518C1.35426 67.0153 1.82349 66.6653 2.35028 66.4255C2.87706 66.1857 3.44915 66.0617 4.02795 66.0618H146.039C147.213 66.0618 148.327 66.5687 149.093 67.4518C149.47 67.8871 149.749 68.3989 149.91 68.952C150.07 69.5051 150.11 70.0865 150.025 70.6562C145.593 100.016 135.529 138.91 112.746 157.491C109.176 160.396 104.718 162 100.195 162H100.196Z" fill="black"/>
<path fill-rule="evenodd" clip-rule="evenodd" d="M139.782 114.032C138.511 117.69 137.153 121.196 135.715 124.529C147.528 122.504 167.386 111.447 167.386 94.3385C167.386 81.062 161.365 74.2448 149.485 74.0687C149.023 76.928 148.519 79.7806 147.974 82.6254C155.515 82.9535 160.167 88.1274 160.167 96.2915C160.167 107.791 147.162 114.062 140.48 114.062C140.244 114.062 140.01 114.051 139.782 114.032ZM132.146 132.869C130.792 132.869 129.495 132.645 128.176 132.183C127.642 131.998 127.153 131.701 126.742 131.313C126.33 130.925 126.005 130.454 125.789 129.932C125.573 129.411 125.47 128.85 125.487 128.287C125.504 127.723 125.641 127.17 125.888 126.663C128.85 120.593 131.528 113.752 133.846 106.327C134.391 104.576 136.067 103.402 137.91 103.517C138.666 103.556 139.396 103.807 140.016 104.243C140.636 104.678 141.121 105.279 141.414 105.977C145.161 105.393 152.109 101.676 152.109 96.2915C152.109 91.3023 149.751 90.6137 147.205 90.6137C146.44 90.6137 145.675 90.8513 144.922 91.3181C144.251 91.7348 143.472 91.9463 142.682 91.9264C141.892 91.9065 141.124 91.6562 140.475 91.2062C139.15 90.2829 138.506 88.6635 138.844 87.0891C140.053 81.4807 141.116 75.6348 142.016 69.7114C142.282 67.9668 143.66 66.6031 145.419 66.347C146.76 66.1521 147.901 66.0615 149.013 66.0615C165.565 66.0615 175.444 76.633 175.444 94.3385C175.444 118.24 147.412 132.869 132.146 132.869M48.9136 52.2019C46.6895 52.2019 44.8848 50.4116 44.8848 48.1998V22.8735C44.8848 20.6642 46.6898 18.8715 48.9136 18.8715C51.1377 18.8715 52.9421 20.6642 52.9421 22.8735V48.1994C52.9421 50.4116 51.1374 52.2019 48.9136 52.2019ZM99.8019 52.2015C97.5781 52.2015 95.7734 50.4116 95.7734 48.1994V22.8739C95.7734 20.6645 97.5781 18.8718 99.8019 18.8718C102.026 18.8718 103.831 20.6645 103.831 22.8739V48.1998C103.831 50.4119 102.026 52.2015 99.8019 52.2015ZM74.3315 52.2019C72.1077 52.2019 70.303 50.4119 70.303 48.1998V4.00206C70.303 1.79029 72.1077 0 74.3315 0C76.5556 0 78.3603 1.79029 78.3603 4.00206V48.1998C78.3603 50.4119 76.5553 52.2019 74.3315 52.2019Z" fill="black"/>
<path fill-rule="evenodd" clip-rule="evenodd" d="M118.384 147.483H31.6844C29.4603 147.483 27.6556 145.693 27.6556 143.481C27.6556 141.269 29.4606 139.479 31.6844 139.479H118.384C120.608 139.479 122.413 141.269 122.413 143.481C122.413 145.693 120.608 147.483 118.384 147.483Z" fill="black"/>
</svg>
